<mxfile host="65bd71144e">
    <diagram id="X2arCQ0NwwEORGS6swBC" name="第 1 页">
        <mxGraphModel dx="1294" dy="576" grid="1" gridSize="10" guides="1" tooltips="1" connect="1" arrows="1" fold="1" page="1" pageScale="1" pageWidth="827" pageHeight="1169" math="0" shadow="0">
            <root>
                <mxCell id="0"/>
                <mxCell id="1" parent="0"/>
                <mxCell id="2" value="&lt;font style=&quot;font-size: 17px;&quot;&gt;标识号&lt;/font&gt;" style="rounded=0;whiteSpace=wrap;html=1;" vertex="1" parent="1">
                    <mxGeometry x="120" y="170" width="120" height="60" as="geometry"/>
                </mxCell>
                <mxCell id="3" value="&lt;font style=&quot;font-size: 17px;&quot;&gt;温度数据&lt;/font&gt;" style="rounded=0;whiteSpace=wrap;html=1;" vertex="1" parent="1">
                    <mxGeometry x="240" y="170" width="120" height="60" as="geometry"/>
                </mxCell>
                <mxCell id="4" value="&lt;font style=&quot;font-size: 17px;&quot;&gt;光照数据&lt;/font&gt;" style="rounded=0;whiteSpace=wrap;html=1;" vertex="1" parent="1">
                    <mxGeometry x="360" y="170" width="220" height="60" as="geometry"/>
                </mxCell>
                <mxCell id="5" value="&lt;font style=&quot;font-size: 17px;&quot;&gt;湿度数据&lt;/font&gt;" style="rounded=0;whiteSpace=wrap;html=1;" vertex="1" parent="1">
                    <mxGeometry x="580" y="170" width="120" height="60" as="geometry"/>
                </mxCell>
                <mxCell id="6" value="8bit" style="text;html=1;align=center;verticalAlign=middle;resizable=0;points=[];autosize=1;strokeColor=none;fillColor=none;fontSize=17;" vertex="1" parent="1">
                    <mxGeometry x="155" y="140" width="50" height="30" as="geometry"/>
                </mxCell>
                <mxCell id="7" value="8bit" style="text;html=1;align=center;verticalAlign=middle;resizable=0;points=[];autosize=1;strokeColor=none;fillColor=none;fontSize=17;" vertex="1" parent="1">
                    <mxGeometry x="615" y="140" width="50" height="30" as="geometry"/>
                </mxCell>
                <mxCell id="8" value="8bit" style="text;html=1;align=center;verticalAlign=middle;resizable=0;points=[];autosize=1;strokeColor=none;fillColor=none;fontSize=17;" vertex="1" parent="1">
                    <mxGeometry x="275" y="140" width="50" height="30" as="geometry"/>
                </mxCell>
                <mxCell id="9" value="16bit" style="text;html=1;align=center;verticalAlign=middle;resizable=0;points=[];autosize=1;strokeColor=none;fillColor=none;fontSize=17;" vertex="1" parent="1">
                    <mxGeometry x="435" y="140" width="60" height="30" as="geometry"/>
                </mxCell>
                <mxCell id="10" value="&lt;font style=&quot;font-size: 27px;&quot;&gt;40bit&lt;/font&gt;" style="text;html=1;align=center;verticalAlign=middle;resizable=0;points=[];autosize=1;strokeColor=none;fillColor=none;fontSize=17;" vertex="1" parent="1">
                    <mxGeometry x="350" y="240" width="80" height="50" as="geometry"/>
                </mxCell>
                <mxCell id="11" value="环境数据封装格式" style="text;html=1;align=center;verticalAlign=middle;resizable=0;points=[];autosize=1;strokeColor=none;fillColor=none;fontSize=27;" vertex="1" parent="1">
                    <mxGeometry x="35" y="80" width="240" height="50" as="geometry"/>
                </mxCell>
                <mxCell id="12" value="控制信息封装格式" style="text;html=1;align=center;verticalAlign=middle;resizable=0;points=[];autosize=1;strokeColor=none;fillColor=none;fontSize=27;" vertex="1" parent="1">
                    <mxGeometry x="35" y="290" width="240" height="50" as="geometry"/>
                </mxCell>
                <mxCell id="13" value="&lt;font style=&quot;font-size: 19px;&quot;&gt;0xff&lt;/font&gt;" style="rounded=0;whiteSpace=wrap;html=1;fontSize=27;" vertex="1" parent="1">
                    <mxGeometry x="120" y="370" width="120" height="60" as="geometry"/>
                </mxCell>
                <mxCell id="14" value="&lt;font style=&quot;font-size: 17px;&quot;&gt;控制节点&lt;br&gt;标识号&lt;/font&gt;" style="rounded=0;whiteSpace=wrap;html=1;fontSize=27;" vertex="1" parent="1">
                    <mxGeometry x="240" y="370" width="120" height="60" as="geometry"/>
                </mxCell>
                <mxCell id="15" value="控制信息" style="rounded=0;whiteSpace=wrap;html=1;fontSize=19;" vertex="1" parent="1">
                    <mxGeometry x="360" y="370" width="350" height="60" as="geometry"/>
                </mxCell>
                <mxCell id="16" value="8bit" style="text;html=1;align=center;verticalAlign=middle;resizable=0;points=[];autosize=1;strokeColor=none;fillColor=none;fontSize=17;" vertex="1" parent="1">
                    <mxGeometry x="155" y="340" width="50" height="30" as="geometry"/>
                </mxCell>
                <mxCell id="17" value="8bit" style="text;html=1;align=center;verticalAlign=middle;resizable=0;points=[];autosize=1;strokeColor=none;fillColor=none;fontSize=17;" vertex="1" parent="1">
                    <mxGeometry x="270" y="340" width="50" height="30" as="geometry"/>
                </mxCell>
                <mxCell id="18" value="24bit" style="text;html=1;align=center;verticalAlign=middle;resizable=0;points=[];autosize=1;strokeColor=none;fillColor=none;fontSize=17;" vertex="1" parent="1">
                    <mxGeometry x="505" y="340" width="60" height="30" as="geometry"/>
                </mxCell>
            </root>
        </mxGraphModel>
    </diagram>
</mxfile>